<?xml version="1.0" encoding="UTF-8"?>
<svg id="Camada_1" data-name="Camada 1" xmlns="http://www.w3.org/2000/svg" viewBox="0 0 1000 1000">
  <defs>
    <style>
      .cls-1, .cls-2 {
        fill: #fff;
      }

      .cls-2 {
        stroke: red;
        stroke-miterlimit: 10;
      }
    </style>
  </defs>
  <g>
    <path class="cls-1" d="m419.75,748.7v-21.25h1.82v11.29l10.79-11.29h2.21l-8.08,8.45,8.28,12.8h-1.98l-7.42-11.62-3.79,3.99v7.62h-1.82Z"/>
    <path class="cls-1" d="m441.53,748.7v-21.25h1.82v21.25h-1.82Z"/>
    <path class="cls-1" d="m459.87,749.03c-2.24,0-4.09-.43-5.53-1.3-1.44-.87-2.51-2.08-3.2-3.63s-1.04-3.36-1.04-5.43c0-2.31.32-4.33.96-6.06.64-1.73,1.67-3.07,3.1-4.04,1.43-.97,3.32-1.45,5.68-1.45,1.21,0,2.32.08,3.32.25,1,.17,1.92.4,2.76.71v1.62c-.84-.31-1.75-.55-2.76-.73-1-.18-2.05-.26-3.15-.26-2.05,0-3.66.41-4.85,1.24-1.19.83-2.03,1.98-2.52,3.46-.5,1.49-.74,3.24-.74,5.26,0,2.77.65,4.93,1.95,6.48,1.3,1.55,3.39,2.33,6.27,2.33.97,0,1.97-.08,3-.23,1.03-.15,1.97-.37,2.8-.66v1.62c-.84.26-1.75.47-2.76.61-1,.14-2.09.21-3.28.21Z"/>
    <path class="cls-1" d="m472.68,748.7v-21.25h1.82v11.29l10.79-11.29h2.21l-8.08,8.45,8.28,12.8h-1.98l-7.42-11.62-3.79,3.99v7.62h-1.82Z"/>
    <path class="cls-1" d="m499.34,749.03c-2.55,0-4.61-.31-6.17-.92v-1.62c1.83.66,3.84.99,6.04.99,2.07,0,3.63-.32,4.69-.96,1.06-.64,1.58-1.72,1.58-3.23,0-.92-.21-1.67-.63-2.24-.42-.57-1.08-1.05-2-1.44-.91-.38-2.14-.74-3.68-1.07-1.63-.37-2.92-.81-3.88-1.3s-1.64-1.11-2.05-1.83c-.41-.73-.61-1.58-.61-2.57,0-1.72.62-3.1,1.86-4.14,1.24-1.04,3.16-1.57,5.76-1.57,1.19,0,2.3.09,3.33.26,1.03.18,1.83.35,2.38.53v1.62c-1.58-.55-3.37-.83-5.35-.83s-3.54.33-4.6.97c-1.07.65-1.6,1.7-1.6,3.15,0,.81.18,1.48.54,2,.36.52.98.95,1.86,1.3.88.35,2.09.72,3.63,1.09,1.74.4,3.1.88,4.08,1.44.98.56,1.68,1.22,2.09,1.98s.63,1.64.63,2.66c0,1.89-.67,3.32-2.01,4.29-1.34.97-3.31,1.45-5.91,1.45Z"/>
    <path class="cls-1" d="m530.29,749.03c-2.55,0-4.61-.31-6.17-.92v-1.62c1.83.66,3.84.99,6.04.99,2.07,0,3.63-.32,4.69-.96,1.06-.64,1.58-1.72,1.58-3.23,0-.92-.21-1.67-.63-2.24-.42-.57-1.08-1.05-2-1.44-.91-.38-2.14-.74-3.68-1.07-1.63-.37-2.92-.81-3.88-1.3s-1.64-1.11-2.05-1.83c-.41-.73-.61-1.58-.61-2.57,0-1.72.62-3.1,1.86-4.14,1.24-1.04,3.16-1.57,5.76-1.57,1.19,0,2.3.09,3.33.26,1.03.18,1.83.35,2.38.53v1.62c-1.58-.55-3.37-.83-5.35-.83s-3.54.33-4.6.97c-1.07.65-1.6,1.7-1.6,3.15,0,.81.18,1.48.54,2,.36.52.98.95,1.86,1.3.88.35,2.09.72,3.63,1.09,1.74.4,3.1.88,4.08,1.44.98.56,1.68,1.22,2.09,1.98s.63,1.64.63,2.66c0,1.89-.67,3.32-2.01,4.29-1.34.97-3.31,1.45-5.91,1.45Z"/>
    <path class="cls-1" d="m550,748.7v-19.77h-7.33v-1.49h16.47v1.49h-7.33v19.77h-1.81Z"/>
    <path class="cls-1" d="m572.47,749.03c-3.28,0-5.69-.92-7.23-2.77-1.54-1.85-2.31-4.54-2.31-8.08,0-3.81.77-6.6,2.31-8.38s3.95-2.67,7.23-2.67,5.69.89,7.23,2.67,2.31,4.58,2.31,8.38c0,3.54-.77,6.24-2.31,8.08-1.54,1.85-3.95,2.77-7.23,2.77Zm0-1.55c2.62,0,4.56-.75,5.83-2.24,1.26-1.5,1.9-3.85,1.9-7.06,0-2.33-.28-4.19-.84-5.58-.56-1.39-1.41-2.38-2.56-2.99-1.14-.6-2.58-.91-4.32-.91s-3.18.3-4.34.91c-1.16.61-2.01,1.6-2.57,2.99-.56,1.39-.84,3.25-.84,5.58,0,3.21.64,5.57,1.91,7.06s3.22,2.24,5.84,2.24Z"/>
    <path class="cls-1" d="m588.77,748.7v-21.25h8.88c2.22,0,3.83.57,4.83,1.72,1,1.14,1.5,2.68,1.5,4.62,0,1.63-.39,2.96-1.17,3.99-.78,1.03-1.95,1.71-3.51,2.01.51.24.88.54,1.11.89.23.35.48.81.74,1.39l2.84,6.63h-1.85l-2.8-6.4c-.22-.51-.46-.91-.73-1.22-.26-.31-.63-.53-1.09-.68-.46-.14-1.11-.21-1.95-.21h-4.98v8.51h-1.82Zm1.82-9.97h6.53c1.56,0,2.79-.39,3.7-1.17.9-.78,1.35-2.04,1.35-3.78,0-3.23-1.55-4.85-4.65-4.85h-6.93v9.8Z"/>
    <path class="cls-1" d="m610.78,748.7v-21.25h13.89v1.49h-12.08v8.42h10.92v1.45h-10.92v8.45h12.08v1.45h-13.89Z"/>
  </g>
  <g>
    <g>
      <path class="cls-1" d="m331.33,624.09h9.35c3.47,0,5.89,3.45,4.69,6.71-3.87,10.57-9.05,24.77-15.52,42.59-.88,2.38-2.33,4.26-4.34,5.66-2.07,1.45-4.34,2.17-6.82,2.17h-8.45c-2.74-7.54-5.48-15.09-8.21-22.63-2.74-7.54-5.48-15.09-8.22-22.63-1.24-3.41-2.84-6.15-4.81-8.22-1.91-2.01-4.13-3.23-6.67-3.64h23.56c2.79,7.75,7.03,19.38,12.71,34.88,2.12-5.79,4.24-11.6,6.36-17.44,2.12-5.84,4.24-11.65,6.36-17.44Z"/>
      <path class="cls-1" d="m375.67,668.5h20.62c.98,2.84,2.45,7.08,4.42,12.71h-31c-2.58,0-4.83-.93-6.74-2.79-1.86-1.86-2.79-4.11-2.79-6.74v-32.16c0-3.72-.62-6.9-1.86-9.53-1.24-2.63-3-4.6-5.27-5.89h39.16c3.53,0,5.99,3.5,4.79,6.83-.71,1.96-1.52,4.18-2.41,6.66h-18.91v9.38h16.43c-.98,2.64-2.43,6.59-4.34,11.86h-12.09v9.69Z"/>
      <path class="cls-1" d="m456.42,628.43c.88-1.34,2.02-2.4,3.41-3.18,1.45-.78,2.97-1.16,4.57-1.16h4.89c2.78,0,5.03,2.25,5.03,5.03v52.09h-15.42v-30.3c-2.45,3.72-5.83,8.87-10.13,15.47-1.98,3.04-6.44,3.04-8.41,0-2.72-4.19-6.08-9.35-10.06-15.47v30.3h-15.5v-41.7c0-3.72-.62-6.9-1.86-9.53-1.24-2.63-3-4.6-5.27-5.89h22.24c3.25,5.01,8.14,12.56,14.65,22.63,1.96-3.05,3.95-6.1,5.97-9.14,1.96-3.05,3.93-6.1,5.89-9.15Z"/>
    </g>
    <g>
      <path class="cls-1" d="m536.89,624.09c8.32,0,14.85,2.17,19.61,6.51,4.75,4.39,7.16,10.38,7.21,17.98v8.14c0,7.6-2.38,13.59-7.13,17.98-4.81,4.34-11.37,6.51-19.69,6.51h-22.09v-41.7c0-3.72-.62-6.9-1.86-9.53-1.24-2.63-3-4.6-5.27-5.89h29.22Zm10.62,33.02v-8.91c0-3.05-.96-5.45-2.87-7.21-1.91-1.76-4.52-2.63-7.83-2.63h-6.51v28.6h6.51c3.31,0,5.92-.88,7.83-2.63,1.91-1.76,2.87-4.16,2.87-7.21Z"/>
      <path class="cls-1" d="m593.31,668.5h20.62c.98,2.84,2.45,7.08,4.42,12.71h-31c-2.58,0-5.81.36-7.72-1.5-1.86-1.86-1.81-5.4-1.81-8.04v-32.16c0-3.72-.62-6.9-1.86-9.53-1.24-2.63-3-4.6-5.27-5.89h39.01c3.61,0,6.12,3.58,4.89,6.97-.7,1.93-1.49,4.1-2.36,6.52h-18.91v9.38h16.43c-.98,2.64-2.43,6.59-4.34,11.86h-12.09v9.69Z"/>
    </g>
    <g>
      <path class="cls-1" d="m740.96,605.92h0s-4.62,11.09-4.62,11.09c-6.49-.45-10.69-.87-13.76,1.2,0,0,1.18-2.48,2.66-5.7,2.43-5.28,8.64-9.21,15.73-6.59Z"/>
      <path class="cls-1" d="m714.57,681.21h-9.35c-3.47,0-5.89-3.45-4.69-6.71,3.87-10.57,9.05-24.77,15.52-42.59.88-2.38,2.33-4.26,4.34-5.66,2.07-1.45,4.34-2.17,6.82-2.17h8.45c2.74,7.54,5.48,15.09,8.21,22.63,2.74,7.54,5.48,15.09,8.22,22.63,1.24,3.41,2.84,6.15,4.81,8.22,1.91,2.01,4.13,3.23,6.67,3.64h-23.56c-2.79-7.75-7.03-19.38-12.71-34.88-2.12,5.79-4.24,11.6-6.36,17.44-2.12,5.84-4.24,11.65-6.36,17.44Z"/>
      <path class="cls-1" d="m694.67,666.95c-1.19,3.15-2.95,7.91-5.27,14.26h-26.89c-2.58,0-5.73.24-7.64-1.62-1.86-1.86-1.89-5.28-1.89-7.92v-32.16c0-3.72-.62-6.9-1.86-9.53-1.24-2.63-3-4.6-5.27-5.89h17.62c2.77,0,5.01,2.24,5.01,5.01v37.85h26.2Z"/>
    </g>
  </g>
  <g>
    <path class="cls-1" d="m386.91,464.31h0s-35.36-96.54-52.79-144.13c-2.35-6.4-5.42-12.38-10.06-17.43-9.7-10.58-22.62-13.21-36.73-7.38-.04.02-.07.03-.11.05-2.19.91-4.06-1.8-2.4-3.5,8.2-8.42,16.32-16.93,25.42-24.24,23.76-19.08,52.68-19.24,77.9-1.85,13.79,9.51,23.76,22.06,29.5,37.91,8.98,24.79,33.29,91.89,33.29,91.9h0c-25.54,27.56-51.36,42.95-52.06,87.42-.03,2.04-2.84,2.59-3.64.71l-8.32-19.45Z"/>
    <path class="cls-1" d="m659,345.25h0s35.36,96.54,52.79,144.13c2.35,6.4,5.42,12.38,10.06,17.43,9.7,10.58,22.62,13.21,36.73,7.38.04-.02.07-.03.11-.05,2.19-.91,4.06,1.8,2.4,3.5-8.2,8.42-16.32,16.93-25.42,24.24-23.76,19.08-52.68,19.24-77.9,1.85-13.79-9.51-23.76-22.06-29.5-37.91-8.98-24.79-33.29-91.89-33.29-91.9h0c25.54-27.56,51.36-42.95,52.06-87.42.03-2.04,2.84-2.59,3.64-.71l8.32,19.45Z"/>
    <path class="cls-1" d="m610.87,373.24c10.5-11.93,16.62-25.91,18.7-41.7,4.01-30.37-9.29-56.05-37.1-68.52-10.64-4.77-21.92-8.13-33.15-11.6-2.26-.7-3.83,2.2-2.02,3.73.03.03.06.05.09.08,11.61,9.91,15.15,22.62,10.14,36.06-2.39,6.42-6.31,11.89-10.95,16.89-20.72,22.36-41.42,44.72-62.14,67.08-18.57,19.26-37.12,38.62-55.64,58.33-11.54,12.29-18.37,23.86-20.61,40.46-4.11,30.36,13.92,57.16,41.69,69.72,10.63,4.81,21.89,8.2,33.11,11.71,2.26.71,3.84-2.19,2.04-3.73-.03-.03-.06-.05-.09-.08-11.58-9.95-15.08-22.66-10.03-36.09,2.41-6.42,8.76-16.14,13.41-21.13,33.38-35.8,57.69-62.21,87.28-94.04,7.88-8.44,15.76-16.89,23.64-25.34.33-.36.65-.72.97-1.09.15-.16.29-.31.43-.46.06-.07.14-.16.22-.27Z"/>
    <line class="cls-1" x1="590.98" y1="394.62" x2="590.98" y2="394.62"/>
    <line class="cls-2" x1="602.43" y1="406.19" x2="602.43" y2="406.19"/>
  </g>
</svg>