<?xml version="1.0" encoding="UTF-8"?>
<svg id="Camada_1" data-name="Camada 1" xmlns="http://www.w3.org/2000/svg" viewBox="0 0 1000 1000">
  <g>
    <path d="m197.35,535.26h0s-20.64-56.34-30.81-84.12c-1.37-3.74-3.17-7.23-5.87-10.18-5.66-6.17-13.2-7.71-21.44-4.31-.02,0-.04.02-.06.03-1.28.53-2.37-1.05-1.4-2.04,4.79-4.91,9.53-9.88,14.83-14.14,13.87-11.14,30.74-11.23,45.47-1.08,8.05,5.55,13.87,12.87,17.22,22.13,5.24,14.47,19.43,53.63,19.43,53.63,0,0,0,0,0,0-14.9,16.08-29.98,25.06-30.38,51.02-.02,1.19-1.66,1.51-2.12.41l-4.85-11.35Z"/>
    <path d="m356.16,465.77h0s20.64,56.34,30.81,84.12c1.37,3.74,3.17,7.23,5.87,10.18,5.66,6.17,13.2,7.71,21.44,4.31.02,0,.04-.02.06-.03,1.28-.53,2.37,1.05,1.4,2.04-4.79,4.91-9.53,9.88-14.83,14.14-13.87,11.14-30.74,11.23-45.47,1.08-8.05-5.55-13.87-12.87-17.22-22.13-5.24-14.47-19.43-53.63-19.43-53.63,0,0,0,0,0,0,14.9-16.08,29.98-25.06,30.38-51.02.02-1.19,1.66-1.51,2.12-.41l4.85,11.35Z"/>
    <path d="m328.07,482.1c6.13-6.97,9.7-15.12,10.92-24.34,2.34-17.73-5.42-32.71-21.65-39.99-6.21-2.79-12.79-4.75-19.35-6.77-1.32-.41-2.24,1.28-1.18,2.18.02.02.04.03.05.05,6.78,5.79,8.84,13.2,5.92,21.05-1.4,3.75-3.68,6.94-6.39,9.86-12.09,13.05-24.18,26.1-36.27,39.15-10.84,11.24-21.67,22.54-32.47,34.04-6.74,7.17-10.72,13.93-12.03,23.61-2.4,17.72,8.13,33.36,24.33,40.69,6.2,2.81,12.78,4.79,19.32,6.83,1.32.41,2.24-1.28,1.19-2.18-.02-.02-.04-.03-.05-.05-6.76-5.81-8.8-13.23-5.85-21.07,1.41-3.74,5.11-9.42,7.83-12.33,19.48-20.9,33.67-36.31,50.94-54.89,4.6-4.93,9.2-9.86,13.8-14.79.19-.21.38-.42.57-.63.08-.09.17-.18.25-.27.04-.04.08-.09.13-.16Z"/>
  </g>
  <g>
    <g>
      <path d="m478.59,483.06h8.31c3.08,0,5.23,3.06,4.17,5.96-3.44,9.39-8.04,22.01-13.79,37.84-.78,2.11-2.07,3.79-3.86,5.03-1.84,1.29-3.86,1.93-6.06,1.93h-7.51c-2.43-6.7-4.87-13.4-7.3-20.11-2.43-6.7-4.87-13.4-7.3-20.11-1.1-3.03-2.52-5.46-4.27-7.3-1.7-1.79-3.67-2.87-5.92-3.24h20.93c2.48,6.89,6.24,17.21,11.29,30.99,1.88-5.14,3.76-10.3,5.65-15.49,1.88-5.19,3.76-10.35,5.65-15.49Z"/>
      <path d="m517.98,522.51h18.32c.87,2.53,2.18,6.29,3.93,11.29h-27.54c-2.3,0-4.29-.83-5.99-2.48-1.65-1.65-2.48-3.65-2.48-5.99v-28.58c0-3.31-.55-6.13-1.65-8.47-1.1-2.34-2.66-4.09-4.68-5.23h34.8c3.14,0,5.32,3.11,4.26,6.06-.63,1.75-1.35,3.72-2.14,5.92h-16.8v8.33h14.6c-.87,2.34-2.16,5.85-3.86,10.54h-10.74v8.61Z"/>
      <path d="m589.73,486.91c.78-1.19,1.79-2.14,3.03-2.82,1.28-.69,2.64-1.03,4.06-1.03h4.34c2.47,0,4.47,2,4.47,4.47v46.28h-13.7v-26.92c-2.18,3.3-5.18,7.88-9,13.74-1.76,2.7-5.72,2.7-7.47,0-2.42-3.72-5.4-8.3-8.94-13.74v26.92h-13.77v-37.05c0-3.31-.55-6.13-1.65-8.47-1.1-2.34-2.66-4.09-4.68-5.23h19.76c2.89,4.45,7.23,11.16,13.01,20.11,1.74-2.71,3.51-5.42,5.3-8.12,1.74-2.71,3.49-5.42,5.23-8.13Z"/>
    </g>
    <g>
      <path d="m661.22,483.06c7.39,0,13.2,1.93,17.42,5.78,4.22,3.9,6.36,9.23,6.4,15.97v7.23c0,6.75-2.11,12.07-6.33,15.97-4.27,3.86-10.1,5.78-17.49,5.78h-19.62v-37.05c0-3.31-.55-6.13-1.65-8.47-1.1-2.34-2.66-4.09-4.68-5.23h25.96Zm9.43,29.33v-7.92c0-2.71-.85-4.84-2.55-6.4-1.7-1.56-4.02-2.34-6.95-2.34h-5.78v25.41h5.78c2.94,0,5.26-.78,6.95-2.34,1.7-1.56,2.55-3.7,2.55-6.4Z"/>
      <path d="m711.35,522.51h18.32c.87,2.53,2.18,6.29,3.93,11.29h-27.54c-2.3,0-5.16.32-6.86-1.33-1.65-1.65-1.61-4.8-1.61-7.14v-28.58c0-3.31-.55-6.13-1.65-8.47-1.1-2.34-2.66-4.09-4.68-5.23h34.66c3.2,0,5.44,3.18,4.35,6.19-.62,1.71-1.32,3.64-2.1,5.79h-16.8v8.33h14.6c-.87,2.34-2.16,5.85-3.86,10.54h-10.74v8.61Z"/>
    </g>
    <g>
      <path d="m842.53,466.91h0s-4.11,9.85-4.11,9.85c-5.76-.4-9.49-.77-12.23,1.07,0,0,1.05-2.21,2.36-5.06,2.16-4.69,7.68-8.18,13.97-5.86Z"/>
      <path d="m819.08,533.8h-8.31c-3.08,0-5.23-3.06-4.17-5.96,3.44-9.39,8.04-22.01,13.79-37.84.78-2.11,2.07-3.79,3.86-5.03,1.84-1.29,3.86-1.93,6.06-1.93h7.51c2.43,6.7,4.87,13.4,7.3,20.11,2.43,6.7,4.87,13.4,7.3,20.11,1.1,3.03,2.52,5.46,4.27,7.3,1.7,1.79,3.67,2.87,5.92,3.24h-20.93c-2.48-6.89-6.24-17.21-11.29-30.99-1.88,5.14-3.76,10.3-5.65,15.49-1.88,5.19-3.76,10.35-5.65,15.49Z"/>
      <path d="m801.4,521.13c-1.06,2.8-2.62,7.02-4.68,12.67h-23.89c-2.3,0-5.09.22-6.79-1.44-1.65-1.65-1.68-4.69-1.68-7.03v-28.58c0-3.31-.55-6.13-1.65-8.47-1.1-2.34-2.66-4.09-4.68-5.23h15.66c2.46,0,4.45,1.99,4.45,4.45v33.63h23.27Z"/>
    </g>
  </g>
</svg>