<?xml version="1.0" encoding="UTF-8"?>
<svg id="Camada_1" data-name="Camada 1" xmlns="http://www.w3.org/2000/svg" viewBox="0 0 1000 1000">
  <defs>
    <style>
      .cls-1, .cls-2 {
        fill: #fff;
      }

      .cls-2 {
        stroke: red;
        stroke-miterlimit: 10;
      }
    </style>
  </defs>
  <g>
    <g>
      <path class="cls-1" d="m309.37,639.64h9.35c3.47,0,5.89,3.45,4.69,6.71-3.87,10.57-9.05,24.77-15.52,42.59-.88,2.38-2.33,4.26-4.34,5.66-2.07,1.45-4.34,2.17-6.82,2.17h-8.45c-2.74-7.54-5.48-15.09-8.21-22.63-2.74-7.54-5.48-15.09-8.22-22.63-1.24-3.41-2.84-6.15-4.81-8.22-1.91-2.01-4.13-3.23-6.67-3.64h23.56c2.79,7.75,7.03,19.38,12.71,34.88,2.12-5.79,4.24-11.6,6.36-17.44,2.12-5.84,4.24-11.65,6.36-17.44Z"/>
      <path class="cls-1" d="m353.71,684.05h20.62c.98,2.84,2.45,7.08,4.42,12.71h-31c-2.58,0-4.83-.93-6.74-2.79-1.86-1.86-2.79-4.11-2.79-6.74v-32.16c0-3.72-.62-6.9-1.86-9.53-1.24-2.63-3-4.6-5.27-5.89h39.16c3.53,0,5.99,3.5,4.79,6.83-.71,1.96-1.52,4.18-2.41,6.66h-18.91v9.38h16.43c-.98,2.64-2.43,6.59-4.34,11.86h-12.09v9.69Z"/>
      <path class="cls-1" d="m434.46,643.98c.88-1.34,2.02-2.4,3.41-3.18,1.45-.78,2.97-1.16,4.57-1.16h4.89c2.78,0,5.03,2.25,5.03,5.03v52.09h-15.42v-30.3c-2.45,3.72-5.83,8.87-10.13,15.47-1.98,3.04-6.44,3.04-8.41,0-2.72-4.19-6.08-9.35-10.06-15.47v30.3h-15.5v-41.7c0-3.72-.62-6.9-1.86-9.53-1.24-2.63-3-4.6-5.27-5.89h22.24c3.25,5.01,8.14,12.56,14.65,22.63,1.96-3.05,3.95-6.1,5.97-9.14,1.96-3.05,3.93-6.1,5.89-9.15Z"/>
    </g>
    <g>
      <path class="cls-1" d="m514.93,639.64c8.32,0,14.85,2.17,19.61,6.51,4.75,4.39,7.16,10.38,7.21,17.98v8.14c0,7.6-2.38,13.59-7.13,17.98-4.81,4.34-11.37,6.51-19.69,6.51h-22.09v-41.7c0-3.72-.62-6.9-1.86-9.53-1.24-2.63-3-4.6-5.27-5.89h29.22Zm10.62,33.02v-8.91c0-3.05-.96-5.45-2.87-7.21-1.91-1.76-4.52-2.63-7.83-2.63h-6.51v28.6h6.51c3.31,0,5.92-.88,7.83-2.63,1.91-1.76,2.87-4.16,2.87-7.21Z"/>
      <path class="cls-1" d="m571.35,684.05h20.62c.98,2.84,2.45,7.08,4.42,12.71h-31c-2.58,0-5.81.36-7.72-1.5-1.86-1.86-1.81-5.4-1.81-8.04v-32.16c0-3.72-.62-6.9-1.86-9.53-1.24-2.63-3-4.6-5.27-5.89h39.01c3.61,0,6.12,3.58,4.89,6.97-.7,1.93-1.49,4.1-2.36,6.52h-18.91v9.38h16.43c-.98,2.64-2.43,6.59-4.34,11.86h-12.09v9.69Z"/>
    </g>
    <g>
      <path class="cls-1" d="m719,621.46h0s-4.62,11.09-4.62,11.09c-6.49-.45-10.69-.87-13.76,1.2,0,0,1.18-2.48,2.66-5.7,2.43-5.28,8.64-9.21,15.73-6.59Z"/>
      <path class="cls-1" d="m692.61,696.76h-9.35c-3.47,0-5.89-3.45-4.69-6.71,3.87-10.57,9.05-24.77,15.52-42.59.88-2.38,2.33-4.26,4.34-5.66,2.07-1.45,4.34-2.17,6.82-2.17h8.45c2.74,7.54,5.48,15.09,8.21,22.63,2.74,7.54,5.48,15.09,8.22,22.63,1.24,3.41,2.84,6.15,4.81,8.22,1.91,2.01,4.13,3.23,6.67,3.64h-23.56c-2.79-7.75-7.03-19.38-12.71-34.88-2.12,5.79-4.24,11.6-6.36,17.44-2.12,5.84-4.24,11.65-6.36,17.44Z"/>
      <path class="cls-1" d="m672.71,682.5c-1.19,3.15-2.95,7.91-5.27,14.26h-26.89c-2.58,0-5.73.24-7.64-1.62-1.86-1.86-1.89-5.28-1.89-7.92v-32.16c0-3.72-.62-6.9-1.86-9.53-1.24-2.63-3-4.6-5.27-5.89h17.62c2.77,0,5.01,2.24,5.01,5.01v37.85h26.2Z"/>
    </g>
  </g>
  <path class="cls-1" d="m364.95,479.85h0s-35.36-96.54-52.79-144.13c-2.35-6.4-5.42-12.38-10.06-17.43-9.7-10.58-22.62-13.21-36.73-7.38-.04.02-.07.03-.11.05-2.19.91-4.06-1.8-2.4-3.5,8.2-8.42,16.32-16.93,25.42-24.24,23.76-19.08,52.68-19.24,77.9-1.85,13.79,9.51,23.76,22.06,29.5,37.91,8.98,24.79,33.29,91.89,33.29,91.9h0c-25.54,27.56-51.36,42.95-52.06,87.42-.03,2.04-2.84,2.59-3.64.71l-8.32-19.45Z"/>
  <path class="cls-1" d="m637.04,360.79h0s35.36,96.54,52.79,144.13c2.35,6.4,5.42,12.38,10.06,17.43,9.7,10.58,22.62,13.21,36.73,7.38.04-.02.07-.03.11-.05,2.19-.91,4.06,1.8,2.4,3.5-8.2,8.42-16.32,16.93-25.42,24.24-23.76,19.08-52.68,19.24-77.9,1.85-13.79-9.51-23.76-22.06-29.5-37.91-8.98-24.79-33.29-91.89-33.29-91.9h0c25.54-27.56,51.36-42.95,52.06-87.42.03-2.04,2.84-2.59,3.64-.71l8.32,19.45Z"/>
  <path class="cls-1" d="m588.91,388.78c10.5-11.93,16.62-25.91,18.7-41.7,4.01-30.37-9.29-56.05-37.1-68.52-10.64-4.77-21.92-8.13-33.15-11.6-2.26-.7-3.83,2.2-2.02,3.73.03.03.06.05.09.08,11.61,9.91,15.15,22.62,10.14,36.06-2.39,6.42-6.31,11.89-10.95,16.89-20.72,22.36-41.42,44.72-62.14,67.08-18.57,19.26-37.12,38.62-55.64,58.33-11.54,12.29-18.37,23.86-20.61,40.46-4.11,30.36,13.92,57.16,41.69,69.72,10.63,4.81,21.89,8.2,33.11,11.71,2.26.71,3.84-2.19,2.04-3.73-.03-.03-.06-.05-.09-.08-11.58-9.95-15.08-22.66-10.03-36.09,2.41-6.42,8.76-16.14,13.41-21.13,33.38-35.8,57.69-62.21,87.28-94.04,7.88-8.44,15.76-16.89,23.64-25.34.33-.36.65-.72.97-1.09.15-.16.29-.31.43-.46.06-.07.14-.16.22-.27Z"/>
  <line class="cls-1" x1="569.02" y1="410.17" x2="569.02" y2="410.17"/>
  <line class="cls-2" x1="580.47" y1="421.73" x2="580.47" y2="421.73"/>
</svg>