<?xml version="1.0" encoding="UTF-8"?>
<svg id="Camada_1" data-name="Camada 1" xmlns="http://www.w3.org/2000/svg" viewBox="0 0 1000 1000">
  <defs>
    <style>
      .cls-1 {
        fill: #fff;
      }
    </style>
  </defs>
  <path class="cls-1" d="m330.32,575.35h0s-44.1-120.41-65.84-179.77c-2.93-7.99-6.76-15.44-12.54-21.74-12.09-13.19-28.21-16.47-45.81-9.2-.05.02-.09.04-.14.06-2.73,1.14-5.06-2.25-3-4.37,10.23-10.5,20.36-21.12,31.7-30.23,29.63-23.8,65.7-24,97.16-2.31,17.2,11.86,29.63,27.51,36.79,47.28,11.2,30.92,41.52,114.61,41.52,114.61,0,0,0,0,0,0-31.85,34.37-64.06,53.56-64.93,109.04-.04,2.55-3.54,3.23-4.54.89l-10.37-24.26Z"/>
  <path class="cls-1" d="m669.68,426.85h0s44.1,120.41,65.84,179.77c2.93,7.99,6.76,15.44,12.54,21.74,12.09,13.19,28.21,16.47,45.81,9.2.05-.02.09-.04.14-.06,2.73-1.14,5.06,2.25,3,4.37-10.23,10.5-20.36,21.12-31.7,30.23-29.63,23.8-65.7,24-97.16,2.31-17.2-11.86-29.63-27.51-36.79-47.28-11.2-30.92-41.52-114.61-41.52-114.61h0c31.85-34.37,64.06-53.56,64.93-109.04.04-2.55,3.54-3.23,4.54-.89l10.37,24.26Z"/>
  <path class="cls-1" d="m609.65,461.75c13.09-14.89,20.72-32.31,23.33-52.01,5-37.88-11.59-69.91-46.27-85.46-13.27-5.95-27.34-10.14-41.34-14.47-2.82-.87-4.78,2.74-2.53,4.66.04.03.08.06.11.1,14.48,12.37,18.89,28.21,12.65,44.98-2.98,8.01-7.87,14.82-13.66,21.06-25.84,27.88-51.67,55.78-77.5,83.66-23.16,24.03-46.3,48.17-69.4,72.75-14.4,15.33-22.91,29.76-25.71,50.46-5.12,37.87,17.36,71.29,51.99,86.95,13.25,6,27.31,10.23,41.29,14.6,2.82.88,4.79-2.73,2.54-4.65-.04-.03-.08-.06-.11-.1-14.44-12.41-18.8-28.27-12.51-45.02,3.01-8,10.92-20.13,16.72-26.35,41.64-44.65,71.96-77.59,108.85-117.29,9.83-10.53,19.65-21.07,29.48-31.6.42-.45.81-.9,1.22-1.35.18-.19.36-.38.54-.58.08-.09.17-.2.28-.33Z"/>
</svg>